<?xml version="1.0" encoding="UTF-8"?>
<svg width="900" height="600" viewBox="0 0 180 120" xmlns="http://www.w3.org/2000/svg" xmlns:xlink="http://www.w3.org/1999/xlink"><defs><g id="d" transform="translate(0 -36)"><g id="c"><g id="b"><path id="a" transform="rotate(18 0 -5)" d="m0-5v5h3z" fill="#fff"/><use transform="scale(-1 1)" xlink:href="#a"/></g><use transform="rotate(72)" xlink:href="#b"/></g><use transform="rotate(-72)" xlink:href="#b"/><use transform="rotate(144)" xlink:href="#c"/></g></defs><g><path d="M0 0h180v120H0Z" fill="#cf142b" stroke-width="1"/><path d="M0 80h180V0H0Z" fill="#00247d" stroke-width="1"/><path d="M0 0h180v40H0Z" fill="#fc0" stroke-width="1"/><g transform="translate(0 .242)" stroke-width=".96302"><use transform="rotate(-70 105.51 -23.474) scale(1.0384)" width="100%" height="100%" xlink:href="#d"/><use transform="rotate(-45.934 147.37 -62.402) scale(1.0384)" width="100%" height="100%" xlink:href="#d"/><use transform="rotate(-30 205.59 -127.04) scale(1.0384)" width="100%" height="100%" xlink:href="#d"/><use transform="rotate(-10 537.7 -472.59) scale(1.0384)" width="100%" height="100%" xlink:href="#d"/></g><g transform="matrix(-1 0 0 1 180.05 .242)" stroke-width=".96302"><use transform="rotate(-70 105.51 -23.474) scale(1.0384)" width="100%" height="100%" xlink:href="#d"/><use transform="rotate(-45.934 147.37 -62.402) scale(1.0384)" width="100%" height="100%" xlink:href="#d"/><use transform="rotate(-30 205.59 -127.04) scale(1.0384)" width="100%" height="100%" xlink:href="#d"/><use transform="rotate(-10 537.7 -472.59) scale(1.0384)" width="100%" height="100%" xlink:href="#d"/></g></g></svg>
