<svg xmlns="http://www.w3.org/2000/svg" viewBox="0 0 560 160" width="560" height="160" role="img" aria-label="Flaggo — logo horizontal">
  <g transform="translate(-11.75 -0.4) scale(0.715)">
    <ellipse cx="128" cy="124" rx="78" ry="75" fill="#17B4C9" stroke="#12303B" stroke-width="8"></ellipse>
    <ellipse cx="95" cy="100" rx="22" ry="15" transform="rotate(-18 95 100)" fill="#2FB98A"></ellipse>
    <ellipse cx="164" cy="140" rx="20" ry="14" transform="rotate(-8 164 140)" fill="#2FB98A"></ellipse>
    <circle cx="84" cy="140" r="9" fill="#FF6F61" opacity="0.30"></circle>
    <circle cx="172" cy="140" r="9" fill="#FF6F61" opacity="0.30"></circle>
    <circle cx="106" cy="118" r="10" fill="#12303B"></circle>
    <circle cx="150" cy="118" r="10" fill="#12303B"></circle>
    <circle cx="110" cy="114" r="3.6" fill="#FFFFFF"></circle>
    <circle cx="154" cy="114" r="3.6" fill="#FFFFFF"></circle>
    <path d="M104 147 Q128 169 152 147" fill="none" stroke="#12303B" stroke-width="6" stroke-linecap="round"></path>
    <rect x="150" y="30" width="9" height="27" rx="4.5" fill="#12303B"></rect>
    <path d="M159 33 C176 29 193 30 201 38 L192 47 L201 56 C191 61 173 59 159 55 Z" fill="#FF6F61" stroke="#12303B" stroke-width="5" stroke-linejoin="round"></path>
    <circle cx="154.5" cy="30" r="6.5" fill="#FFC53D" stroke="#12303B" stroke-width="3"></circle>
  </g>
  <text x="160" y="112" font-family="Nunito, 'Segoe UI', system-ui, sans-serif" font-weight="900" font-size="92" letter-spacing="-3.6" fill="#0F2A44" textLength="243">Flagg</text>
  <g transform="translate(406 42) scale(1.93)">
    <g transform="rotate(-16 20 21)">
      <ellipse cx="20" cy="21" rx="21" ry="6" fill="none" stroke="#F5A836" stroke-width="3" stroke-linecap="round"></ellipse>
    </g>
    <circle cx="20" cy="21" r="14" fill="url(#fgLogoH)"></circle>
    <g opacity="0.17" stroke="#EAFDFF" fill="none" stroke-width="1">
      <ellipse cx="20" cy="21" rx="13.5" ry="4"></ellipse>
      <ellipse cx="20" cy="21" rx="5" ry="13.5"></ellipse>
    </g>
    <ellipse cx="14.5" cy="15" rx="6" ry="4.4" fill="#ffffff" opacity="0.42" transform="rotate(-22 14.5 15)"></ellipse>
  </g>
  <defs>
    <radialGradient id="fgLogoH" cx="34%" cy="27%" r="82%">
      <stop offset="0%" stop-color="#84E8F1"></stop>
      <stop offset="55%" stop-color="#18C4D7"></stop>
      <stop offset="100%" stop-color="#0C97AD"></stop>
    </radialGradient>
  </defs>
</svg>
